<svg width="360" height="360" viewBox="0 0 360 360" fill="none" xmlns="http://www.w3.org/2000/svg">
<path fill-rule="evenodd" clip-rule="evenodd" d="M321.754 142.695L226.649 305.509L131.543 142.695H321.754ZM226.243 250.454L276.298 165.36H176.187L226.243 250.454Z" fill="url(#paint0_linear_756_27)"/>
<path fill-rule="evenodd" clip-rule="evenodd" d="M125.143 58.8315C144.796 57.9052 164.191 63.6259 180.199 75.0653L168.487 91.4555C156.161 82.6471 141.224 78.243 126.091 78.9563C110.958 79.67 96.5024 85.4611 85.0596 95.3905C73.6178 105.32 65.8525 118.813 63.0138 133.695C60.1751 148.576 62.429 163.98 69.4125 177.424C76.3965 190.869 87.7056 201.57 101.513 207.805C115.32 214.038 130.825 215.445 145.527 211.794C153.049 209.925 160.134 206.776 166.507 202.555L131.527 142.679H216.997V145.646C217.05 152.322 216.339 158.939 214.905 165.375H214.768C211.978 177.904 206.452 189.752 198.486 200.023C198.123 200.491 197.748 200.951 197.376 201.411L197.43 201.504C191.546 208.759 184.581 214.985 176.821 219.981L176.847 219.965C168.818 225.134 159.782 229.012 150.386 231.346C131.291 236.089 111.155 234.265 93.223 226.17C75.2908 218.073 60.6064 204.172 51.5362 186.712C42.4666 169.252 39.5352 149.247 43.2214 129.921C46.9082 110.594 56.9962 93.069 71.8566 80.1735C86.7173 67.2781 105.489 59.7583 125.143 58.8315ZM193.969 165.375C192.202 171.379 189.595 177.123 186.221 182.445L176.181 165.375H193.969Z" fill="#00C4C4"/>
<path d="M176.173 165.359L186.218 182.434C185.083 184.224 183.87 185.973 182.562 187.659C178.026 193.507 172.584 198.514 166.499 202.544L144.78 165.359H176.173Z" fill="#C1D0FF"/>
<path fill-rule="evenodd" clip-rule="evenodd" d="M126.023 54.1343C146.57 53.7335 166.634 60.3842 182.874 72.978L167.383 92.9507C155.709 83.8977 141.286 79.1177 126.516 79.4058C111.746 79.6939 97.5205 85.0332 86.2085 94.5347C74.8965 104.036 67.1802 117.127 64.3462 131.626C61.5124 146.124 63.7317 161.156 70.6334 174.217C77.5351 187.279 88.7032 197.582 102.278 203.411C115.853 209.239 131.014 210.242 145.238 206.251C159.462 202.259 171.889 193.516 180.45 181.476C188.506 170.146 192.678 156.54 192.391 142.686H217.671C217.956 161.777 212.154 180.504 201.048 196.123C189.14 212.871 171.853 225.034 152.067 230.586C132.281 236.139 111.189 234.744 92.3052 226.636C73.4218 218.528 57.8855 204.196 48.2847 186.026C38.684 167.856 35.5984 146.946 39.5406 126.777C43.4829 106.608 54.2157 88.3978 69.9517 75.1802C85.6876 61.9628 105.477 54.5351 126.023 54.1343Z" fill="#00C4C4"/>
<defs>
<linearGradient id="paint0_linear_756_27" x1="316.814" y1="145.589" x2="137.004" y2="145.589" gradientUnits="userSpaceOnUse">
<stop stop-color="#3E63DD"/>
<stop offset="1" stop-color="#C1D0FF"/>
</linearGradient>
</defs>
</svg>
